<svg xmlns="http://www.w3.org/2000/svg" data-name="Layer 1" viewBox="0 0 68 85" x="0px" y="0px"><path d="M17.19,39.89a1,1,0,0,1-.58-.19,1,1,0,0,1-.42-.81v-2a1,1,0,0,1,1-1H23a1,1,0,0,1,1,.83,1,1,0,0,1-.65,1.11l-5.77,2A1,1,0,0,1,17.19,39.89Z"/><path d="M39.9,31.81a1,1,0,0,1-.58-.19,1,1,0,0,1-.42-.81V25.48a1,1,0,0,1,1-1H51.26a1,1,0,0,1,1,1v1.29a1,1,0,0,1-.67.94l-11.36,4A1,1,0,0,1,39.9,31.81Zm1-5.33v2.91l8.19-2.91Z"/><path d="M28.55,35.85a1,1,0,0,1-.58-.19,1,1,0,0,1-.42-.81V25.48a1,1,0,0,1,1-1H39.9a1,1,0,0,1,1,1v5.33a1,1,0,0,1-.67.94l-11.35,4A1,1,0,0,1,28.55,35.85Zm1-9.37v7L38.9,30.1V26.48Z"/><path d="M23,37.84H17.19a1,1,0,0,1-1-1V25.48a1,1,0,0,1,1-1H28.55a1,1,0,0,1,1,1v9.37a1,1,0,0,1-.67.94l-5.59,2A.92.92,0,0,1,23,37.84Zm-4.77-2h4.6l4.76-1.7V26.48H18.19Z"/><path d="M51.26,26.47H39.9a1,1,0,0,1-1-1V14.11a1,1,0,0,1,1-1H51.26a1,1,0,0,1,1,1V25.47A1,1,0,0,1,51.26,26.47Zm-10.36-2h9.36V15.11H40.9Z"/><path d="M39.9,26.47H28.54a1,1,0,0,1-1-1V14.11a1,1,0,0,1,1-1H39.9a1,1,0,0,1,1,1V25.47A1,1,0,0,1,39.9,26.47Zm-10.36-2H38.9V15.11H29.54Z"/><path d="M28.54,26.47H17.18a1,1,0,0,1-1-1V14.11a1,1,0,0,1,1-1H28.54a1,1,0,0,1,1,1V25.47A1,1,0,0,1,28.54,26.47Zm-10.36-2h9.36V15.11H18.18Z"/><path d="M51.26,15.11H39.9a1,1,0,0,1-1-1V2.75a1,1,0,0,1,1-1H50.26a2,2,0,0,1,2,2V14.11A1,1,0,0,1,51.26,15.11Zm-10.36-2h9.36V3.75H40.9Z"/><path d="M39.9,15.11H28.54a1,1,0,0,1-1-1V2.75a1,1,0,0,1,1-1H39.9a1,1,0,0,1,1,1V14.11A1,1,0,0,1,39.9,15.11Zm-10.36-2H38.9V3.75H29.54Z"/><path d="M28.54,15.11H17.18a1,1,0,0,1-1-1V3.75a2,2,0,0,1,2-2H28.54a1,1,0,0,1,1,1V14.11A1,1,0,0,1,28.54,15.11Zm-10.36-2h9.36V3.75H18.18Z"/><path d="M50.9,66.25H17.54a4,4,0,0,1-4-4v-15a1,1,0,0,1,2,0v15a2,2,0,0,0,2,2H50.9a2,2,0,0,0,2-2V35.6a1,1,0,0,1,2,0V62.25A4,4,0,0,1,50.9,66.25Z"/><path d="M25.54,50.81a1,1,0,0,1-.73-.32L20,45.23,12,49.09a1,1,0,0,1-1.1-.15,1,1,0,0,1-.28-1.09l3-8.36a1,1,0,0,1,.61-.6l39.36-14a1,1,0,0,1,.82.06,1,1,0,0,1,.49.66l2.53,11a1,1,0,0,1-.35,1,1,1,0,0,1-1.06.12l-8-3.9-1.44,6.9a1,1,0,0,1-1.45.67l-6.6-3.6-1.79,6.91a1,1,0,0,1-1.42.64l-6.17-3.12-2.64,7.9a1,1,0,0,1-.73.66ZM20.19,43a1,1,0,0,1,.73.32l4.21,4.56,2.47-7.4a1,1,0,0,1,.56-.6,1,1,0,0,1,.84,0L35.1,43l1.8-6.95a1,1,0,0,1,.57-.67,1,1,0,0,1,.87,0L44.88,39l1.43-6.83a1,1,0,0,1,.53-.7,1,1,0,0,1,.88,0L55,35l-1.81-7.86L15.33,40.61l-2,5.62,6.42-3.12A1,1,0,0,1,20.19,43Z"/><text x="0" y="83" fill="#000000" font-size="5px" font-weight="bold" font-family="'Helvetica Neue', Helvetica, Arial-Unicode, Arial, Sans-serif">Created by Bernd Lakenbrink</text><text x="0" y="88" fill="#000000" font-size="5px" font-weight="bold" font-family="'Helvetica Neue', Helvetica, Arial-Unicode, Arial, Sans-serif">from the Noun Project</text></svg>